<?xml version="1.0" encoding="UTF-8" standalone="no"?>
<svg xmlns="http://www.w3.org/2000/svg" xmlns:xlink="http://www.w3.org/1999/xlink" width="172.002mm" height="158.325mm" viewBox="68.275208 -180.470245 172.001984 158.324783">
    <path transform="matrix(1,0,0,-1,0,0)" style="stroke:none;fill:#041038;fill-rule:evenodd" d="M145.56723,180.3815C137.848938,179.714233,129.769073,177.323303,123.280838,173.786652C112.56929,167.[...]"/>
    <path transform="matrix(1,0,0,-1,0,0)" style="stroke:none;fill:#041038;fill-rule:evenodd" d="M147.487183,171.174164C146.990021,170.677002,147.360077,169.828247,148.074005,169.828247C148.266113,[...]"/>
    <path transform="matrix(1,0,0,-1,0,0)" style="stroke:none;fill:#041038;fill-rule:evenodd" d="M171.152313,171.114777C171.085938,170.897064,170.878326,169.98407,170.690948,169.085907C170.308563,1[...]"/>
    <path transform="matrix(1,0,0,-1,0,0)" style="stroke:none;fill:#041038;fill-rule:evenodd" d="M190.200653,158.546173C189.647125,157.992645,189.97995,157.306274,190.758301,157.39621C191.167908,15[...]"/>
    <path transform="matrix(1,0,0,-1,0,0)" style="stroke:none;fill:#041038;fill-rule:evenodd" d="M133.076263,158.234772C132.921707,157.618958,133.192505,157.301941,133.796783,157.391296C134.830383,[...]"/>
    <path transform="matrix(1,0,0,-1,0,0)" style="stroke:none;fill:#041038;fill-rule:evenodd" d="M160.436096,154.682251C160.047424,154.29361,160.039856,154.172394,160.375671,153.713165C160.891449,1[...]"/>
    <path transform="matrix(1,0,0,-1,0,0)" style="stroke:none;fill:#041038;fill-rule:evenodd" d="M201.897339,142.018951C201.357239,139.436218,201.569702,139.692596,199.589813,139.234528L197.821014,[...]"/>
    <path transform="matrix(1,0,0,-1,0,0)" style="stroke:none;fill:#041038;fill-rule:evenodd" d="M147.883026,142.474182C147.518967,142.110107,147.600082,141.562347,148.054016,141.319427C148.569061[...]"/>
    <path transform="matrix(1,0,0,-1,0,0)" style="stroke:none;fill:#041038;fill-rule:evenodd" d="M183.478912,135.298798C182.954865,134.667358,183.728058,133.674805,184.345123,134.18689C184.717468,[...]"/>
    <path transform="matrix(1,0,0,-1,0,0)" style="stroke:none;fill:#041038;fill-rule:evenodd" d="M209.503174,121.805946C209.117401,121.420174,209.175293,120.961922,209.647369,120.664619C210.387054[...]"/>
    <path transform="matrix(1,0,0,-1,0,0)" style="stroke:none;fill:#041038;fill-rule:evenodd" d="M192.141449,117.664955C192.079559,117.560753,191.914948,116.829323,191.775665,116.039543C191.494293[...]"/>
    <path transform="matrix(1,0,0,-1,0,0)" style="stroke:none;fill:#041038;fill-rule:evenodd" d="M206.451996,100.393684C206.166748,99.86071,206.601074,99.30619,207.233826,99.395508C207.624176,99.4[...]"/>
    <path transform="matrix(1,0,0,-1,0,0)" style="stroke:none;fill:#041038;fill-rule:evenodd" d="M98.130394,50.504784C95.013168,49.47216,93.044533,46.943459,92.858704,43.73333C92.648651,40.104843,[...]"/>
    <path transform="matrix(1,0,0,-1,0,0)" style="stroke:none;fill:#041038;fill-rule:evenodd" d="M122.655922,50.66938C120.594627,50.148827,118.468719,48.444115,117.655731,46.659836C115.823509,42.6[...]"/>
    <path transform="matrix(1,0,0,-1,0,0)" style="stroke:none;fill:#041038;fill-rule:evenodd" d="M68.275208,43.251404L68.275208,35.828991L69.363831,35.828991L70.452454,35.828991L70.452454,40.89563[...]"/>
    <path transform="matrix(1,0,0,-1,0,0)" style="stroke:none;fill:#041038;fill-rule:evenodd" d="M141.671143,47.259506C141.636749,45.381638,141.635986,42.04155,141.669434,39.83709L141.730225,35.82[...]"/>
    <path transform="matrix(1,0,0,-1,0,0)" style="stroke:none;fill:#041038;fill-rule:evenodd" d="M164.469635,43.255356L164.469635,35.799812L168.477753,35.863888C172.442139,35.927254,172.495972,35.[...]"/>
    <path transform="matrix(1,0,0,-1,0,0)" style="stroke:none;fill:#041038;fill-rule:evenodd" d="M184.6586,43.251404L184.6586,35.828991L189.507904,35.828991L194.357208,35.828991L194.357208,36.8186[...]"/>
    <path transform="matrix(1,0,0,-1,0,0)" style="stroke:none;fill:#041038;fill-rule:evenodd" d="M207.900696,49.151222C207.030273,47.251198,205.018402,42.646873,203.351196,38.739349L202.101685,35.[...]"/>
    <path transform="matrix(1,0,0,-1,0,0)" style="stroke:none;fill:#041038;fill-rule:evenodd" d="M225.036499,43.251404L225.036499,35.828991L226.121796,35.828991L227.207062,35.828991L227.259888,40.[...]"/>
    <path transform="matrix(1,0,0,-1,0,0)" style="stroke:none;fill:#041038;fill-rule:evenodd" d="M168.765564,29.034649C167.155579,28.53706,166.072784,26.781506,166.352966,25.123043C166.734833,22.8[...]"/>
    <path transform="matrix(1,0,0,-1,0,0)" style="stroke:none;fill:#041038;fill-rule:evenodd" d="M120.528976,25.635548L120.528976,22.171757L121.023804,22.171757L121.518631,22.171757L121.522507,24.[...]"/>
    <path transform="matrix(1,0,0,-1,0,0)" style="stroke:none;fill:#041038;fill-rule:evenodd" d="M137.551041,25.629066L137.551041,22.158791L139.777771,22.21476C141.904449,22.268208,142.007263,22.2[...]"/>
    <path transform="matrix(1,0,0,-1,0,0)" style="stroke:none;fill:#041038;fill-rule:evenodd" d="M151.802063,25.654655L151.802063,22.171757L152.287445,22.171757C152.744598,22.171757,152.776245,22.[...]"/>
    <path transform="matrix(1,0,0,-1,0,0)" style="stroke:none;fill:#041038;fill-rule:evenodd" d="M182.08551,25.622398L182.08551,22.145462L182.629822,22.208092C183.16153,22.269276,183.175446,22.303[...]"/>
    <path transform="matrix(1,0,0,-1,0,0)" style="stroke:none;fill:#041038;fill-rule:evenodd" d="M68.706787,25.289169L68.770035,24.843826L88.909515,24.793407L109.048981,24.742981L109.048981,25.238[...]"/>
    <path transform="matrix(1,0,0,-1,0,0)" style="stroke:none;fill:#041038;fill-rule:evenodd" d="M199.305481,25.239685L199.305481,24.744858L219.494446,24.744858L239.683411,24.744858L239.683411,25.[...]"/>
</svg>
