<?xml version="1.0" encoding="UTF-8" standalone="no"?>
<svg xmlns="http://www.w3.org/2000/svg" xmlns:xlink="http://www.w3.org/1999/xlink" width="172.002mm" height="158.325mm" viewBox="68.275208 -180.470245 172.001984 158.324783">
    <path transform="matrix(1,0,0,-1,0,0)" style="stroke:none;fill:#000000;fill-rule:evenodd" d="M145.56723,180.3815C137.848938,179.714233,129.769073,177.323303,123.280838,173.786652C112.56929,167.947937,104.537285,159.625549,98.543282,148.154785C93.026283,137.596893,90.963074,124.879005,92.811607,112.82412C93.874428,105.893166,95.59063,100.627266,98.605995,95.044868C101.871399,88.999565,104.488373,85.341042,108.448067,81.285683C117.22451,72.297211,128.316513,65.998077,139.484589,63.660103C147.966553,61.884445,157.330017,62.024422,165.216522,64.044777C171.250519,65.590561,176.718903,67.953239,182.608978,71.559387C183.761261,72.26487,184.763336,72.842079,184.835846,72.842079C184.908356,72.842079,186.716492,70.993896,188.853943,68.735008C192.490387,64.891968,194.296997,63.082703,193.547882,64.034149C192.129303,65.835869,178.618256,82.06012,174.674744,86.697243C169.724365,92.518372,155.926636,107.935112,154.480255,109.26136C154.183441,109.533516,153.75824,110.023399,153.53537,110.349983C153.312469,110.676582,154.634949,109.467598,156.474182,107.663368C161.952393,102.289467,170.059723,94.645233,177.041687,88.270744C182.622314,83.175667,183.731537,82.18177,194.357208,72.755424C199.854736,67.878403,205.065277,63.246323,205.936188,62.461922C206.807068,61.677513,207.875885,60.734596,208.31134,60.366554C209.566223,59.305939,196.947266,72.086777,184.386322,84.598526C171.122345,97.810547,164.491333,104.124138,157.786285,109.925255C156.672211,110.889137,155.760681,111.72683,155.760681,111.786797C155.760681,111.846748,155.916534,111.761726,156.107056,111.597832C157.032318,110.801842,167.142029,102.761757,171.397217,99.437836C182.027893,91.133713,216.24115,65.520309,215.337891,66.542122C215.283447,66.603691,208.781433,72.032928,200.888947,78.607079C179.521027,96.405724,172.586792,101.966393,160.758453,110.788246C157.356506,113.325478,154.57309,115.451607,154.57309,115.512947C154.57309,115.574303,155.263382,115.129936,156.107056,114.52549C157.602234,113.454277,167.734253,106.660042,171.694122,104.07328C181.476135,97.683205,189.42981,92.545395,194.852051,89.114021C196.484985,88.080643,198.889832,86.549309,200.196167,85.711067C201.502502,84.872818,205.377014,82.419472,208.806183,80.259209C212.235321,78.09893,215.789001,75.849045,216.703186,75.25946C219.139648,73.688179,220.879974,72.636322,220.879974,72.735008C220.879974,72.782639,219.031769,74.101387,216.772888,75.66555C214.514008,77.229721,209.281219,80.869057,205.14444,83.75296C196.157166,90.018394,184.319122,98.09053,178.604431,101.850121C169.22702,108.019325,163.488678,111.746437,158.38327,114.98394C155.416779,116.865105,152.989655,118.475868,152.989655,118.563438C152.989655,118.714531,163.939423,129.267426,165.508789,130.628815L166.251007,131.272705L166.251007,121.868706L166.251007,112.464684L168.830475,110.764061C170.249146,109.828712,171.450684,109.063438,171.500549,109.063438C171.550385,109.063438,171.614319,117.480461,171.642639,127.767921C171.670959,138.055389,171.641632,146.450134,171.577454,146.422913C171.513275,146.395691,170.275513,144.948303,168.826874,143.206512C166.929443,140.925171,163.553375,137.427734,156.753235,130.698853L147.313507,121.358101L146.143478,122.556221C144.261658,124.483177,122.128288,145.562775,121.26606,146.249207C120.94342,146.506073,120.924835,145.150818,120.924835,121.359383L120.924835,96.197929L124.189629,96.197929L127.454422,96.197929L127.504974,113.729164L127.555527,131.260406L138.017761,121.00312C143.771973,115.361626,149.522675,109.76609,150.797089,108.568611C152.071503,107.371132,154.62262,104.744118,156.466248,102.730812C161.144897,97.621559,164.946289,93.633392,180.303772,77.722198C181.338165,76.650543,182.184448,75.674805,182.184448,75.553902C182.184448,75.237999,178.28241,73.578964,175.147705,72.562088C172.11911,71.579628,168.86676,70.811272,165.717621,70.334297C163.051117,69.930405,155.715576,69.880135,152.989655,70.247063C141.221802,71.831108,131.062592,76.415199,122.211388,84.134964C105.513016,98.698822,98.345596,120.704033,103.808258,140.635712C105.627419,147.273285,109.130943,154.266998,113.364143,159.711029C115.108109,161.953857,118.968056,165.921204,121.320702,167.889008C128.939362,174.261414,140.309326,178.999359,150.911377,180.219635L153.088623,180.470245L149.723785,180.460083C147.873138,180.454529,146.002686,180.419159,145.56723,180.3815z"/>
    <path transform="matrix(1,0,0,-1,0,0)" style="stroke:none;fill:#000000;fill-rule:evenodd" d="M147.487183,171.174164C146.990021,170.677002,147.360077,169.828247,148.074005,169.828247C148.266113,169.828247,148.518646,170.006378,148.635162,170.224091C149.062805,171.023163,148.118042,171.805054,147.487183,171.174164z"/>
    <path transform="matrix(1,0,0,-1,0,0)" style="stroke:none;fill:#000000;fill-rule:evenodd" d="M171.152313,171.114777C171.085938,170.897064,170.878326,169.98407,170.690948,169.085907C170.308563,167.25296,170.473938,167.382233,167.834473,166.853302C166.052582,166.496246,166.067902,166.436249,168.060028,165.970337C169.109406,165.724915,170.052155,165.472107,170.15506,165.408539C170.257935,165.34494,170.502502,164.509705,170.698547,163.55246C170.894562,162.595215,171.117554,161.741852,171.194031,161.656067C171.270538,161.570282,171.547943,162.371887,171.810516,163.437439L172.287903,165.374786L174.343475,165.890869C175.47403,166.174713,176.32019,166.451385,176.223816,166.505737C176.127441,166.560028,175.276825,166.763214,174.333527,166.957214C173.390228,167.151215,172.52533,167.367493,172.411469,167.437866C172.297607,167.508209,171.994873,168.453369,171.738739,169.538208C171.432465,170.835266,171.231659,171.375092,171.152313,171.114777z"/>
    <path transform="matrix(1,0,0,-1,0,0)" style="stroke:none;fill:#000000;fill-rule:evenodd" d="M190.200653,158.546173C189.647125,157.992645,189.97995,157.306274,190.758301,157.39621C191.167908,157.443512,191.303314,157.578918,191.350616,157.988556C191.440552,158.766876,190.754181,159.099701,190.200653,158.546173z"/>
    <path transform="matrix(1,0,0,-1,0,0)" style="stroke:none;fill:#000000;fill-rule:evenodd" d="M133.076263,158.234772C132.921707,157.618958,133.192505,157.301941,133.796783,157.391296C134.830383,157.544159,134.718719,158.74411,133.670929,158.74411C133.334503,158.74411,133.168381,158.601807,133.076263,158.234772z"/>
    <path transform="matrix(1,0,0,-1,0,0)" style="stroke:none;fill:#000000;fill-rule:evenodd" d="M160.436096,154.682251C160.047424,154.29361,160.039856,154.172394,160.375671,153.713165C160.891449,153.007813,162.043213,153.798401,161.577423,154.538055C161.280121,155.010162,160.821869,155.068054,160.436096,154.682251z"/>
    <path transform="matrix(1,0,0,-1,0,0)" style="stroke:none;fill:#000000;fill-rule:evenodd" d="M201.897339,142.018951C201.357239,139.436218,201.569702,139.692596,199.589813,139.234528L197.821014,138.825317L199.404449,138.48056C200.27536,138.290924,201.083374,138.105408,201.200073,138.068298C201.316803,138.031189,201.525696,137.390717,201.664337,136.64505C202.085541,134.379517,202.170471,134.341583,202.569092,136.241058C202.974548,138.173126,202.669617,137.915558,205.342377,138.583466L206.332031,138.83078L204.655853,139.237274C202.784698,139.69104,202.968353,139.463928,202.406738,142.018951L202.145691,143.206512L201.897339,142.018951z"/>
    <path transform="matrix(1,0,0,-1,0,0)" style="stroke:none;fill:#000000;fill-rule:evenodd" d="M147.883026,142.474182C147.518967,142.110107,147.600082,141.562347,148.054016,141.319427C148.569061,141.043793,149.031036,141.376007,149.031036,142.022003C149.031036,142.645325,148.330215,142.921356,147.883026,142.474182z"/>
    <path transform="matrix(1,0,0,-1,0,0)" style="stroke:none;fill:#000000;fill-rule:evenodd" d="M183.478912,135.298798C182.954865,134.667358,183.728058,133.674805,184.345123,134.18689C184.717468,134.495911,184.751587,135.018158,184.421082,135.348663C184.103729,135.666016,183.768951,135.648285,183.478912,135.298798z"/>
    <path transform="matrix(1,0,0,-1,0,0)" style="stroke:none;fill:#000000;fill-rule:evenodd" d="M209.503174,121.805946C209.117401,121.420174,209.175293,120.961922,209.647369,120.664619C210.387054,120.198814,211.177643,121.350609,210.47229,121.866386C210.013062,122.202171,209.891846,122.194618,209.503174,121.805946z"/>
    <path transform="matrix(1,0,0,-1,0,0)" style="stroke:none;fill:#000000;fill-rule:evenodd" d="M192.141449,117.664955C192.079559,117.560753,191.914948,116.829323,191.775665,116.039543C191.494293,114.444084,191.654297,114.570595,189.245087,114.038231C188.773956,113.93412,188.352112,113.812584,188.307678,113.76815C188.263245,113.723717,188.826874,113.570488,189.560181,113.427635C190.293457,113.284782,191.034058,113.095573,191.205963,113.007164C191.39975,112.907494,191.619232,112.312401,191.783691,111.440773C191.929565,110.667656,192.110596,109.997017,192.185944,109.950447C192.261292,109.903877,192.4729,110.559837,192.656189,111.408165L192.989441,112.950554L194.613495,113.353279C196.32077,113.776649,196.315308,113.855782,194.555145,114.203209C193.95639,114.321373,193.341888,114.495995,193.189514,114.59124C193.03717,114.686485,192.764343,115.459663,192.583252,116.309395C192.402161,117.159142,192.203369,117.769142,192.141449,117.664955z"/>
    <path transform="matrix(1,0,0,-1,0,0)" style="stroke:none;fill:#000000;fill-rule:evenodd" d="M206.451996,100.393684C206.166748,99.86071,206.601074,99.30619,207.233826,99.395508C207.624176,99.450607,207.71756,99.578407,207.71756,100.057579C207.71756,100.554543,207.630981,100.661369,207.186554,100.712715C206.822754,100.754753,206.591431,100.654289,206.451996,100.393684z"/>
    <path transform="matrix(1,0,0,-1,0,0)" style="stroke:none;fill:#000000;fill-rule:evenodd" d="M98.130394,50.504784C95.013168,49.47216,93.044533,46.943459,92.858704,43.73333C92.648651,40.104843,94.595314,37.115303,97.879776,36.022301C99.786057,35.387928,102.550667,35.508362,104.160309,36.295891C105.653366,37.026375,107.05246,38.416718,107.773582,39.886574C108.311203,40.982384,108.356224,41.242416,108.356224,43.251404C108.356224,45.233238,108.306686,45.52951,107.804283,46.55249C107.069092,48.049461,105.268539,49.710915,103.761177,50.283257C102.141823,50.898109,99.617531,50.997421,98.130394,50.504784zM102.537209,48.462883C105.127045,47.57132,106.65477,44.832352,106.087181,42.098328C105.43174,38.941086,102.191902,36.980072,99.116104,37.878853C96.688148,38.588326,95.353958,40.31192,95.222839,42.908417C95.098824,45.364273,96.180145,47.257393,98.261749,48.228798C99.37928,48.750313,101.38353,48.860046,102.537209,48.462883z"/>
    <path transform="matrix(1,0,0,-1,0,0)" style="stroke:none;fill:#000000;fill-rule:evenodd" d="M122.655922,50.66938C120.594627,50.148827,118.468719,48.444115,117.655731,46.659836C115.823509,42.638664,117.417801,38.069962,121.286034,36.256599C122.298615,35.781925,122.634064,35.730026,124.68969,35.730026C126.86116,35.730026,127.03228,35.760662,128.273224,36.371574C132.401993,38.40416,133.841293,43.488411,131.381958,47.353004C130.587708,48.601097,129.617432,49.422058,128.094147,50.134895C127.062416,50.617699,126.51989,50.737236,125.115799,50.79113C124.171547,50.82737,123.064606,50.772583,122.655922,50.66938zM126.511383,48.487549C127.631989,48.176331,128.873993,47.120132,129.534836,45.916435C130.056152,44.96685,130.128265,44.641594,130.125671,43.251404C130.123474,42.073151,130.0177,41.439468,129.712372,40.77504C127.530937,36.028305,120.265427,36.928871,119.31353,42.063988C118.791237,44.881523,120.182114,47.424934,122.795921,48.43203C123.558083,48.725685,125.546906,48.755409,126.511383,48.487549z"/>
    <path transform="matrix(1,0,0,-1,0,0)" style="stroke:none;fill:#000000;fill-rule:evenodd" d="M68.275208,43.251404L68.275208,35.828991L69.363831,35.828991L70.452454,35.828991L70.452454,40.89563L70.452454,45.962273L73.057213,42.770035C74.489838,41.014305,75.759064,39.609573,75.877731,39.648407C75.996391,39.687241,77.251381,41.124741,78.66658,42.842857L81.239685,45.966705L81.292511,40.89785L81.345337,35.828991L82.430618,35.828991L83.515892,35.828991L83.515892,43.251404L83.515892,50.673813L82.949455,50.673813C82.452599,50.673813,81.98671,50.187576,79.156494,46.715195C77.381897,44.537956,75.877686,42.761292,75.813789,42.767059C75.698357,42.777481,73.345161,45.633186,70.730316,48.936081C69.613441,50.346848,69.264404,50.663208,68.819519,50.667976L68.275208,50.673813L68.275208,43.251404z"/>
    <path transform="matrix(1,0,0,-1,0,0)" style="stroke:none;fill:#000000;fill-rule:evenodd" d="M141.671143,47.259506C141.636749,45.381638,141.635986,42.04155,141.669434,39.83709L141.730225,35.828991L142.807526,35.828991L143.884827,35.828991L143.884827,41.081642L143.884827,46.33429L144.923965,45.166733C145.495483,44.524567,147.521805,42.163666,149.426895,39.920273C152.784653,35.96624,152.913406,35.841187,153.632935,35.835182C154.337158,35.829308,154.375793,35.861923,154.387466,36.472267C154.394226,36.826073,154.438538,38.273438,154.485947,39.688644C154.533356,41.103851,154.516052,44.154465,154.44751,46.467781L154.322876,50.673813L153.263626,50.673813L152.204391,50.673813L152.151672,45.389954L152.098969,40.106094L147.559189,45.389954C143.351929,50.286789,142.972321,50.673813,142.376526,50.673813L141.733658,50.673813L141.671143,47.259506z"/>
    <path transform="matrix(1,0,0,-1,0,0)" style="stroke:none;fill:#000000;fill-rule:evenodd" d="M164.469635,43.255356L164.469635,35.799812L168.477753,35.863888C172.442139,35.927254,172.495972,35.933899,173.413086,36.47303C174.542786,37.137131,175.077606,37.853279,175.349335,39.065865C175.744476,40.829033,175.085327,42.349686,173.620819,43.053474C172.80011,43.447876,172.550323,43.746231,173.040802,43.746231C173.182739,43.746231,173.600067,44.056984,173.968201,44.43679C174.543732,45.030586,174.649506,45.293037,174.723053,46.309914C174.82959,47.782883,174.702728,48.301483,174.044464,49.083786C172.948761,50.385948,172.299316,50.558151,168.180847,50.638496L164.469635,50.710892L164.469635,43.255356zM171.72818,48.179527C172.408539,47.670914,172.706909,46.74337,172.463379,45.894135C172.135071,44.749413,171.449982,44.447609,169.00824,44.371994L166.844818,44.305L166.844818,46.517265L166.844818,48.729523L169.00824,48.662529C170.832977,48.606026,171.25882,48.530411,171.72818,48.179527zM172.144409,41.96402C173.616913,41.066238,173.488861,38.876198,171.920349,38.131889C171.416473,37.892784,170.664856,37.808304,169.041626,37.808304L166.844818,37.808304L166.844818,40.084503L166.844818,42.36071L169.170502,42.359978C171.145691,42.359344,171.593872,42.299675,172.144409,41.96402z"/>
    <path transform="matrix(1,0,0,-1,0,0)" style="stroke:none;fill:#000000;fill-rule:evenodd" d="M184.6586,43.251404L184.6586,35.828991L189.507904,35.828991L194.357208,35.828991L194.357208,36.818649L194.357208,37.808304L190.695496,37.808304L187.033783,37.808304L187.033783,40.084503L187.033783,42.36071L190.200653,42.36071L193.367554,42.36071L193.367554,43.350365L193.367554,44.340019L190.200653,44.340019L187.033783,44.340019L187.033783,46.517265L187.033783,48.694504L190.596527,48.694504L194.159271,48.694504L194.159271,49.684158L194.159271,50.673813L189.408936,50.673813L184.6586,50.673813L184.6586,43.251404z"/>
    <path transform="matrix(1,0,0,-1,0,0)" style="stroke:none;fill:#000000;fill-rule:evenodd" d="M207.900696,49.151222C207.030273,47.251198,205.018402,42.646873,203.351196,38.739349L202.101685,35.810757L203.308289,35.869354L204.514923,35.927956L205.145111,37.412437L205.775269,38.896919L209.328308,38.950714L212.881348,39.004501L213.530518,37.416748L214.179688,35.828991L215.35257,35.828991C215.997681,35.828991,216.525482,35.873466,216.525482,35.927834C216.525482,35.982193,215.108154,39.300011,213.375916,43.300758L210.226318,50.574844L209.41748,50.635704L208.608612,50.696556L207.900696,49.151222zM209.93219,45.972954C210.856903,43.911156,211.974518,41.108604,211.901245,41.035316C211.861633,40.99572,210.67392,40.988266,209.261841,41.018745L206.694458,41.074158L207.971069,44.092606C208.673187,45.752754,209.286835,47.111053,209.334717,47.111053C209.382568,47.111053,209.651459,46.598907,209.93219,45.972954z"/>
    <path transform="matrix(1,0,0,-1,0,0)" style="stroke:none;fill:#000000;fill-rule:evenodd" d="M225.036499,43.251404L225.036499,35.828991L226.121796,35.828991L227.207062,35.828991L227.259888,40.889511L227.312714,45.950035L229.875305,42.769859C231.284729,41.02076,232.503052,39.589676,232.582703,39.589676C232.799866,39.589676,233.045105,39.866852,235.625824,43.029213L238.000977,45.93969L238.053802,40.884346L238.106628,35.828991L239.191895,35.828991L240.277191,35.828991L240.277191,43.263939L240.277191,50.698891L239.696259,50.636871C239.208008,50.58474,238.615845,49.96138,235.985046,46.730019C234.263397,44.615372,232.765717,42.861076,232.65686,42.831589C232.547974,42.802109,231.047791,44.554543,229.323059,46.725899C226.537201,50.233223,226.123016,50.673813,225.611877,50.673813L225.036499,50.673813L225.036499,43.251404z"/>
    <path transform="matrix(1,0,0,-1,0,0)" style="stroke:none;fill:#000000;fill-rule:evenodd" d="M168.765564,29.034649C167.155579,28.53706,166.072784,26.781506,166.352966,25.123043C166.734833,22.862896,169.285156,21.532063,171.478394,22.44846C172.313232,22.797279,172.515259,23.117855,172.138,23.495113C171.875671,23.757435,171.77359,23.755291,171.233734,23.476116C169.993347,22.83469,168.670654,23.173111,167.889893,24.331669C167.113464,25.48381,167.468109,27.213921,168.600769,27.799644C169.378876,28.202019,170.789398,28.196457,171.371521,27.788719C171.790436,27.495296,171.856781,27.49477,172.144592,27.782558C172.432373,28.070343,172.430511,28.129261,172.123047,28.469009C171.772095,28.856831,170.532074,29.308258,169.889771,29.282063C169.684692,29.273697,169.178802,29.162361,168.765564,29.034649z"/>
    <path transform="matrix(1,0,0,-1,0,0)" style="stroke:none;fill:#000000;fill-rule:evenodd" d="M120.528976,25.635548L120.528976,22.171757L121.023804,22.171757L121.518631,22.171757L121.522507,24.497444L121.526382,26.823135L122.264748,25.935635C122.670853,25.447506,123.2295,24.792076,123.506195,24.479118L124.009285,23.910103L125.089645,25.332031L126.170006,26.75396L126.225883,24.450333L126.281754,22.146694L126.819672,22.20871L127.357597,22.270721L127.411751,25.685032C127.478333,29.882401,127.404549,29.942608,125.410652,27.31786C124.666412,26.338158,123.996613,25.536583,123.922195,25.536583C123.847786,25.536583,123.186462,26.3382,122.452591,27.317963C121.718727,28.297722,120.985687,29.099339,120.823631,29.099339C120.573936,29.099339,120.528976,28.570808,120.528976,25.635548z"/>
    <path transform="matrix(1,0,0,-1,0,0)" style="stroke:none;fill:#000000;fill-rule:evenodd" d="M137.551041,25.629066L137.551041,22.158791L139.777771,22.21476C141.904449,22.268208,142.007263,22.290379,142.066696,22.708179C142.126343,23.127537,142.056763,23.148003,140.384277,23.203007L138.639648,23.260376L138.579315,24.20055L138.519012,25.14072L140.014328,25.14072C141.477386,25.14072,141.509659,25.151402,141.509659,25.635548C141.509659,26.116447,141.470474,26.130375,140.11792,26.130375C138.557312,26.130375,138.409241,26.258293,138.626877,27.418419L138.756561,28.109684L140.331024,28.109684C141.87854,28.109684,141.905518,28.118168,141.905518,28.604511L141.905518,29.099339L139.728271,29.099339L137.551041,29.099339L137.551041,25.629066z"/>
    <path transform="matrix(1,0,0,-1,0,0)" style="stroke:none;fill:#000000;fill-rule:evenodd" d="M151.802063,25.654655L151.802063,22.171757L152.287445,22.171757C152.744598,22.171757,152.776245,22.243679,152.831757,23.408825L152.890686,24.645893L153.583435,24.701973C154.243042,24.755371,154.313812,24.696144,155.061676,23.464905C155.726227,22.370846,155.931915,22.171757,156.397705,22.171757C156.700531,22.171757,156.947998,22.23856,156.947632,22.320206C156.947296,22.401852,156.598083,22.993454,156.171631,23.634876L155.396271,24.801102L156.073303,25.439629C156.986298,26.300686,157.023956,27.40123,156.173035,28.353977C155.608032,28.986584,155.555237,29.001835,153.698883,29.068962L151.802063,29.13755L151.802063,25.654655zM155.179901,27.904789C155.691071,27.631214,155.695892,26.510147,155.187866,26.050385C154.916779,25.805061,154.546814,25.72805,153.851837,25.772297L152.890686,25.833481L152.831329,26.971584L152.771973,28.109684L153.7845,28.109684C154.341415,28.109684,154.96933,28.017487,155.179901,27.904789z"/>
    <path transform="matrix(1,0,0,-1,0,0)" style="stroke:none;fill:#000000;fill-rule:evenodd" d="M182.08551,25.622398L182.08551,22.145462L182.629822,22.208092C183.16153,22.269276,183.175446,22.303886,183.232269,23.705723L183.290436,25.14072L185.063141,25.14072L186.835846,25.14072L186.835846,23.643089L186.835846,22.145462L187.380157,22.208092L187.924469,22.270721L187.924469,25.635548L187.924469,29.000374L187.380157,29.063007L186.835846,29.125633L186.835846,27.62801L186.835846,26.130375L185.054474,26.130375L183.273071,26.130375L183.273071,27.614857L183.273071,29.099339L182.679291,29.099339L182.08551,29.099339L182.08551,25.622398z"/>
    <path transform="matrix(1,0,0,-1,0,0)" style="stroke:none;fill:#000000;fill-rule:evenodd" d="M68.706787,25.289169L68.770035,24.843826L88.909515,24.793407L109.048981,24.742981L109.048981,25.23875L109.048981,25.734512L88.84626,25.734512L68.643539,25.734512L68.706787,25.289169z"/>
    <path transform="matrix(1,0,0,-1,0,0)" style="stroke:none;fill:#000000;fill-rule:evenodd" d="M199.305481,25.239685L199.305481,24.744858L219.494446,24.744858L239.683411,24.744858L239.683411,25.239685L239.683411,25.734512L219.494446,25.734512L199.305481,25.734512L199.305481,25.239685z"/>
</svg>
